<svg width="778" height="804" viewBox="0 0 778 804" fill="none" xmlns="http://www.w3.org/2000/svg">
<g clip-path="url(#clip0_9_725)">
<path d="M92.7387 625.867L64.8192 626.395L50.6806 626.602C45.9552 626.696 41.2109 626.677 36.4667 626.715H35.6383V625.867L35.5442 602.09V601.148H36.4855L64.6309 601.261C74.0065 601.28 83.4008 601.468 92.7764 601.563H93.3035V602.071C93.2659 606.1 93.1341 610.11 93.0588 614.082L92.7387 625.867ZM92.7387 625.867L92.4752 613.856C92.381 609.903 92.2681 605.968 92.2304 602.071L92.7387 602.579C83.3632 602.673 73.9688 602.88 64.5933 602.88L36.4479 602.993L37.3892 602.052L37.295 625.83L36.4479 624.983C41.098 625.02 45.7293 625.001 50.3794 625.096L64.3674 625.303L92.7387 625.867Z" fill="#EBEBEB"/>
<path d="M61.3552 655.858L33.4357 656.385L19.2971 656.592C14.5716 656.686 9.82738 656.668 5.08314 656.705H4.25478V655.858L4.16064 632.08V631.139H5.10196L33.2474 631.252C42.6229 631.271 52.0173 631.459 61.3928 631.553H61.92V632.061C61.8823 636.09 61.7505 640.1 61.6752 644.073L61.3552 655.858ZM61.3552 655.858L61.0916 643.847C60.9975 639.893 60.8845 635.959 60.8469 632.061L61.3552 632.57C51.9796 632.664 42.5853 632.871 33.2097 632.871L5.06431 632.984L6.00563 632.043L5.9115 655.82L5.06431 654.973C9.71443 655.011 14.3457 654.992 18.9958 655.067L32.9838 655.274L61.3552 655.858Z" fill="#EBEBEB"/>
<path d="M61.3552 141.22L33.4168 141.747L19.2782 141.954C14.5528 142.049 9.80855 142.03 5.0643 142.067H4.23594V141.22L4.12299 117.443V116.501H5.0643L33.2097 116.614C42.5853 116.633 51.9796 116.821 61.3552 116.915H61.8823V117.424C61.8447 121.453 61.7129 125.463 61.6376 129.435L61.3552 141.22ZM61.3552 141.22L61.0916 129.209C60.9975 125.255 60.8845 121.321 60.8469 117.424L61.3552 117.932C51.9796 118.026 42.5853 118.233 33.2097 118.233L5.0643 118.384L6.00562 117.443L5.89267 141.22L5.04548 140.373C9.69559 140.411 14.3269 140.392 18.977 140.467L32.965 140.674L61.3552 141.22Z" fill="#EBEBEB"/>
<path d="M772.936 141.22L745.016 141.747L730.859 141.954C726.133 142.049 721.389 142.03 716.645 142.067H715.817V141.22L715.722 117.443V116.501H716.664L744.809 116.614C754.185 116.633 763.579 116.821 772.955 116.915H773.482V117.424C773.444 121.453 773.312 125.463 773.237 129.435L772.936 141.22ZM772.936 141.22L772.672 129.209C772.578 125.255 772.465 121.321 772.427 117.424L772.936 117.932C763.56 118.026 754.166 118.233 744.79 118.233L716.645 118.346L717.586 117.405L717.492 141.183L716.645 140.335C721.295 140.373 725.926 140.354 730.576 140.43L744.564 140.637L772.936 141.22Z" fill="#EBEBEB"/>
<path d="M741.552 171.211L713.633 171.738L699.494 171.945C694.769 172.039 690.024 172.02 685.28 172.039H684.452V171.192L684.358 147.414V146.473H685.299L713.444 146.586C722.82 146.586 732.214 146.793 741.59 146.887H742.117V147.395C742.079 151.424 741.948 155.434 741.872 159.406L741.552 171.211ZM741.552 171.211L741.289 159.199C741.194 155.246 741.082 151.311 741.044 147.414L741.552 147.922C732.177 148.017 722.782 148.224 713.407 148.224L685.261 148.337L686.203 147.395L686.109 171.173L685.261 170.326C689.911 170.363 694.543 170.345 699.193 170.439L713.181 170.646L741.552 171.211Z" fill="#EBEBEB"/>
<path d="M597.399 449.446L569.479 449.973L555.322 450.18C550.596 450.274 545.852 450.255 541.108 450.274H540.279V449.427L540.185 425.649V424.708H541.127L569.272 424.821C578.648 424.84 588.042 425.028 597.417 425.122H597.945V425.63C597.907 429.659 597.775 433.669 597.7 437.641L597.399 449.446ZM597.399 449.446L597.135 437.434C597.041 433.481 596.928 429.546 596.89 425.649L597.399 426.157C588.023 426.252 578.629 426.459 569.253 426.459L541.108 426.572L542.049 425.63L541.955 449.408L541.108 448.561C545.758 448.598 550.389 448.58 555.039 448.655L569.027 448.862L597.399 449.446Z" fill="#EBEBEB"/>
<path d="M565.996 479.436L538.077 479.963L523.938 480.17C519.213 480.264 514.468 480.246 509.724 480.283H508.896V479.436L508.802 455.658V454.717H509.743L537.888 454.83C547.264 454.849 556.658 455.037 566.034 455.131H566.561V455.64C566.523 459.668 566.391 463.678 566.316 467.651L565.996 479.436ZM565.996 479.436L565.733 467.425C565.638 463.471 565.525 459.537 565.488 455.64L565.996 456.148C556.621 456.242 547.226 456.449 537.851 456.449L509.705 456.562L510.647 455.621L510.552 479.398L509.705 478.551C514.355 478.589 518.987 478.57 523.637 478.664L537.625 478.871L565.996 479.436Z" fill="#EBEBEB"/>
<path d="M534.726 449.446L506.806 449.973L492.649 450.18C487.923 450.274 483.179 450.255 478.435 450.274H477.606V449.427L477.512 425.649V424.708H478.454L506.599 424.821C515.974 424.84 525.369 425.028 534.744 425.122H535.272V425.63C535.234 429.659 535.102 433.669 535.027 437.641L534.726 449.446ZM534.726 449.446L534.462 437.434C534.387 433.481 534.255 429.546 534.217 425.649L534.726 426.157C525.35 426.252 515.956 426.459 506.58 426.459L478.435 426.572L479.376 425.63L479.282 449.408L478.435 448.561C483.085 448.598 487.716 448.58 492.366 448.655L506.354 448.862L534.726 449.446Z" fill="#EBEBEB"/>
<path d="M772.936 655.858L745.016 656.385L730.859 656.592C726.133 656.686 721.389 656.668 716.645 656.705H715.817V655.858L715.722 632.08V631.139H716.664L744.809 631.252C754.185 631.271 763.579 631.459 772.955 631.553H773.482V632.061C773.444 636.09 773.312 640.1 773.237 644.073L772.936 655.858ZM772.936 655.858L772.672 643.847C772.578 639.893 772.465 635.959 772.427 632.061L772.936 632.57C763.56 632.664 754.166 632.871 744.79 632.871L716.645 632.984L717.586 632.043L717.492 655.82L716.645 654.973C721.295 655.011 725.926 654.992 730.576 655.067L744.564 655.274L772.936 655.858Z" fill="#EBEBEB"/>
<path d="M294.727 211.951L266.807 212.478L252.669 212.685C247.943 212.779 243.199 212.76 238.455 212.798H237.626V211.951L237.532 188.173V187.232H238.474L266.619 187.345C275.995 187.364 285.389 187.552 294.765 187.646H295.292V188.154C295.254 192.183 295.122 196.193 295.047 200.166L294.727 211.951ZM294.727 211.951L294.463 199.94C294.369 195.986 294.256 192.051 294.219 188.154L294.727 188.663C285.351 188.757 275.957 188.964 266.581 188.964L238.436 189.077L239.377 188.136L239.283 211.913L238.436 211.066C243.086 211.104 247.717 211.085 252.368 211.179L266.356 211.386L294.727 211.951Z" fill="#EBEBEB"/>
<path d="M715.12 259.509L726.209 241.643L720.73 238.254C719.13 237.256 718.245 235.43 718.415 233.547C718.509 232.512 718.546 231.458 718.509 230.403C718.471 228.521 719.45 226.751 721.126 225.866L726.792 222.816L716.852 204.272L711.185 207.322C709.529 208.207 707.514 208.056 705.97 206.983C705.104 206.381 704.22 205.835 703.297 205.327C701.64 204.423 700.605 202.691 700.661 200.789L700.868 194.351L679.858 193.692L679.67 200.149C679.613 202.051 678.446 203.689 676.733 204.498C676.262 204.724 675.811 204.95 675.359 205.195C674.907 205.44 674.455 205.703 674.022 205.967C672.403 206.946 670.407 207.002 668.807 206.004L663.291 202.597L652.202 220.463L657.681 223.871C659.281 224.868 660.166 226.695 659.996 228.577C659.902 229.613 659.865 230.667 659.902 231.702C659.94 233.585 658.961 235.336 657.285 236.24L651.619 239.289L661.559 257.833L667.226 254.783C668.882 253.899 670.897 254.049 672.441 255.122C673.307 255.725 674.191 256.271 675.114 256.76C676.771 257.664 677.806 259.396 677.75 261.297L677.543 267.755L698.553 268.414L698.76 261.956C698.816 260.074 699.984 258.436 701.678 257.626C702.149 257.4 702.601 257.174 703.071 256.93C703.523 256.685 703.975 256.421 704.408 256.158C706.027 255.179 708.041 255.122 709.66 256.12L715.12 259.509ZM697.329 246.236C688.951 250.736 678.522 247.592 674.022 239.195C669.523 230.818 672.667 220.369 681.044 215.869C689.422 211.37 699.871 214.533 704.37 222.91C708.87 231.307 705.707 241.737 697.329 246.236Z" fill="#EBEBEB"/>
<path d="M109.494 461.968L120.583 444.101L115.104 440.713C113.504 439.715 112.619 437.889 112.789 436.006C112.883 434.971 112.921 433.916 112.883 432.862C112.845 430.979 113.824 429.21 115.5 428.325L121.167 425.275L111.226 406.731L105.56 409.781C103.903 410.666 101.888 410.515 100.345 409.442C99.4786 408.84 98.5938 408.294 97.6713 407.785C96.0145 406.882 94.9791 405.15 95.0356 403.248L95.2427 396.81L74.2324 396.151L74.0442 402.608C73.9877 404.51 72.8204 406.147 71.1072 406.957C70.6366 407.183 70.1848 407.409 69.7329 407.654C69.2811 407.898 68.8293 408.162 68.3962 408.425C66.7772 409.404 64.7816 409.461 63.1813 408.463L57.6652 405.056L46.5765 422.922L52.055 426.329C53.6552 427.327 54.54 429.153 54.3706 431.036C54.2765 432.071 54.2388 433.126 54.2765 434.161C54.3141 436.044 53.3351 437.795 51.6596 438.698L45.9929 441.748L55.9332 460.292L61.5999 457.242C63.2566 456.357 65.2711 456.508 66.8148 457.581C67.6808 458.184 68.5657 458.73 69.4882 459.219C71.1449 460.123 72.1803 461.855 72.1239 463.756L71.9168 470.214L92.927 470.873L93.1341 464.415C93.1906 462.532 94.3578 460.895 96.0522 460.085C96.5229 459.859 96.9747 459.633 97.4453 459.388C97.8972 459.144 98.349 458.88 98.782 458.617C100.401 457.638 102.416 457.581 104.035 458.579L109.494 461.968ZM91.6845 448.695C83.3067 453.195 72.8769 450.051 68.3774 441.654C63.8779 433.276 67.0219 422.828 75.3997 418.328C83.7774 413.829 94.226 416.991 98.7255 425.369C103.244 433.766 100.081 444.196 91.6845 448.695Z" fill="#EBEBEB"/>
<path d="M324.736 119.742L317.375 106.978L313.478 109.237C312.33 109.896 310.918 109.839 309.807 109.105C309.186 108.71 308.564 108.333 307.905 107.994C306.719 107.392 305.966 106.206 305.966 104.888V100.37H291.225V104.888C291.225 106.206 290.472 107.392 289.286 107.994C288.627 108.333 287.987 108.691 287.385 109.105C286.274 109.82 284.862 109.896 283.714 109.237L279.816 106.978L272.455 119.742L276.371 122.001C277.52 122.66 278.16 123.921 278.084 125.258C278.066 125.616 278.066 125.973 278.066 126.35C278.066 126.708 278.066 127.065 278.084 127.442C278.16 128.76 277.52 130.021 276.371 130.68L272.437 132.958L279.798 145.722L283.714 143.463C284.862 142.804 286.274 142.861 287.385 143.595C287.987 143.99 288.627 144.367 289.286 144.687C290.472 145.289 291.225 146.475 291.225 147.793V152.311H305.966V147.793C305.966 146.475 306.719 145.289 307.905 144.687C308.564 144.348 309.186 143.99 309.807 143.595C310.918 142.861 312.33 142.804 313.478 143.463L317.394 145.722L324.755 132.958L320.839 130.699C319.691 130.04 319.069 128.779 319.126 127.461C319.145 127.103 319.145 126.726 319.145 126.369C319.145 126.011 319.145 125.653 319.126 125.277C319.051 123.959 319.691 122.698 320.839 122.02L324.736 119.742ZM310.654 126.35C310.654 133.014 305.251 138.418 298.586 138.418C291.922 138.418 286.519 133.014 286.519 126.35C286.519 119.685 291.922 114.282 298.586 114.282C305.27 114.263 310.654 119.685 310.654 126.35Z" fill="#EBEBEB"/>
<path d="M389.009 803.873C543.995 803.873 669.635 786.105 669.635 764.187C669.635 742.269 543.995 724.501 389.009 724.501C234.024 724.501 108.383 742.269 108.383 764.187C108.383 786.105 234.024 803.873 389.009 803.873Z" fill="#EBEBEB"/>
<path d="M427.773 509.655H360.92V515.134H427.773V509.655Z" fill="#37474F"/>
<path d="M427.773 516.79H360.92V522.269H427.773V516.79Z" fill="#37474F"/>
<path d="M427.773 523.926H360.92V529.404H427.773V523.926Z" fill="#37474F"/>
<path d="M427.773 531.061H360.92V536.539H427.773V531.061Z" fill="#37474F"/>
<path d="M427.773 538.196H360.92V543.674H427.773V538.196Z" fill="#37474F"/>
<path d="M456.728 680.504H329.612V685.983H456.728V680.504Z" fill="#37474F"/>
<path d="M456.728 687.64H329.612V693.118H456.728V687.64Z" fill="#37474F"/>
<path d="M456.728 694.775H329.612V700.253H456.728V694.775Z" fill="#37474F"/>
<path d="M456.728 701.91H329.612V707.389H456.728V701.91Z" fill="#37474F"/>
<path d="M456.728 709.045H329.612V714.524H456.728V709.045Z" fill="#37474F"/>
<path d="M273.848 464.378C273.905 463.643 246.023 454.306 246.023 454.306L247.661 358.498L284.636 350.572L273.848 464.378Z" fill="#FF6348"/>
<path opacity="0.2" d="M273.848 464.378C273.905 463.643 246.023 454.306 246.023 454.306L247.661 358.498L284.636 350.572L273.848 464.378Z" fill="black"/>
<path d="M529.247 501.993C529.435 501.277 558.842 502.106 558.842 502.106L590.263 411.588L558.277 391.425L529.247 501.993Z" fill="#FF6348"/>
<path opacity="0.2" d="M529.247 501.993C529.435 501.277 558.842 502.106 558.842 502.106L590.263 411.588L558.277 391.425L529.247 501.993Z" fill="black"/>
<path d="M268.483 499.658C268.483 499.658 278.819 344.717 287.893 293.754C287.893 293.754 475.065 307.912 576.106 346.524C576.106 346.524 524.013 527.502 521.321 536.483C521.302 536.483 389.499 510.521 268.483 499.658Z" fill="#FF6348"/>
<path opacity="0.1" d="M435.548 314.444C432.498 333.101 429.43 351.758 426.248 370.378L416.609 426.254L416.082 425.463L478.792 440.355L510.119 447.942L541.409 455.68L509.95 448.639L478.529 441.447L415.762 426.781L415.122 426.631L415.235 425.991L425.231 370.17C428.582 351.608 432.047 333.026 435.548 314.444Z" fill="black"/>
<path opacity="0.1" d="M428.658 325.081C428.695 326.794 427.321 328.545 425.363 328.715C424.422 328.809 423.386 328.508 422.614 327.83C421.843 327.152 421.372 326.117 421.372 325.081C421.372 324.027 421.843 322.992 422.614 322.333C423.386 321.655 424.422 321.354 425.363 321.448C427.34 321.617 428.695 323.368 428.658 325.081ZM428.658 325.081C428.658 324.215 428.262 323.368 427.622 322.822C426.982 322.276 426.135 322.05 425.363 322.144C423.782 322.333 422.765 323.745 422.784 325.081C422.765 326.418 423.782 327.83 425.363 328.018C426.135 328.112 426.982 327.886 427.622 327.34C428.281 326.794 428.658 325.947 428.658 325.081Z" fill="black"/>
<path opacity="0.1" d="M425.382 348.125C425.42 349.838 424.045 351.589 422.087 351.758C421.146 351.852 420.111 351.551 419.339 350.873C418.567 350.196 418.096 349.16 418.096 348.125C418.096 347.07 418.567 346.035 419.339 345.376C420.111 344.698 421.146 344.397 422.087 344.491C424.045 344.661 425.42 346.43 425.382 348.125ZM425.382 348.125C425.382 347.259 424.987 346.411 424.347 345.866C423.706 345.32 422.859 345.094 422.087 345.188C420.506 345.376 419.489 346.788 419.508 348.125C419.489 349.461 420.506 350.873 422.087 351.062C422.859 351.156 423.706 350.93 424.347 350.384C424.987 349.838 425.363 348.991 425.382 348.125Z" fill="black"/>
<path opacity="0.1" d="M421.334 372.486C421.372 374.199 419.998 375.95 418.04 376.12C417.098 376.214 416.063 375.912 415.291 375.235C414.519 374.557 414.048 373.521 414.048 372.486C414.048 371.451 414.519 370.396 415.291 369.737C416.063 369.06 417.098 368.758 418.04 368.853C419.998 369.022 421.372 370.792 421.334 372.486ZM421.334 372.486C421.334 371.62 420.939 370.773 420.299 370.227C419.659 369.681 418.812 369.455 418.04 369.549C416.458 369.737 415.442 371.149 415.46 372.486C415.442 373.823 416.458 375.235 418.04 375.423C418.812 375.517 419.659 375.291 420.299 374.745C420.939 374.199 421.315 373.352 421.334 372.486Z" fill="black"/>
<path opacity="0.1" d="M417.287 396.847C417.324 398.561 415.95 400.311 413.992 400.481C413.051 400.575 412.015 400.274 411.243 399.596C410.471 398.918 410.001 397.883 410.001 396.847C410.001 395.812 410.471 394.758 411.243 394.099C412.015 393.421 413.051 393.12 413.992 393.214C415.95 393.383 417.324 395.134 417.287 396.847ZM417.287 396.847C417.287 395.981 416.891 395.134 416.251 394.588C415.611 394.042 414.764 393.816 413.992 393.91C412.41 394.099 411.394 395.511 411.413 396.847C411.394 398.184 412.41 399.596 413.992 399.784C414.764 399.878 415.611 399.652 416.251 399.107C416.891 398.561 417.268 397.713 417.287 396.847Z" fill="black"/>
<path opacity="0.1" d="M431.068 435.705C431.105 437.418 429.731 439.169 427.773 439.339C426.832 439.433 425.796 439.131 425.024 438.454C424.252 437.776 423.782 436.74 423.782 435.705C423.782 434.651 424.252 433.615 425.024 432.956C425.796 432.279 426.832 431.977 427.773 432.072C429.75 432.222 431.105 433.992 431.068 435.705ZM431.068 435.705C431.068 434.839 430.672 433.992 430.032 433.446C429.392 432.9 428.545 432.674 427.773 432.768C426.192 432.956 425.175 434.368 425.194 435.705C425.175 437.042 426.192 438.454 427.773 438.642C428.545 438.736 429.392 438.51 430.032 437.964C430.691 437.399 431.068 436.552 431.068 435.705Z" fill="black"/>
<path opacity="0.1" d="M454.073 441.315C454.111 443.029 452.737 444.779 450.779 444.949C449.837 445.043 448.802 444.742 448.03 444.064C447.258 443.386 446.788 442.351 446.788 441.315C446.788 440.261 447.258 439.226 448.03 438.567C448.802 437.889 449.837 437.588 450.779 437.682C452.737 437.832 454.092 439.602 454.073 441.315ZM454.073 441.315C454.073 440.449 453.678 439.602 453.038 439.056C452.398 438.51 451.551 438.284 450.779 438.378C449.197 438.567 448.181 439.979 448.2 441.315C448.181 442.652 449.197 444.064 450.779 444.252C451.551 444.346 452.398 444.12 453.038 443.575C453.678 443.01 454.055 442.163 454.073 441.315Z" fill="black"/>
<path opacity="0.1" d="M477.06 446.925C477.098 448.639 475.724 450.39 473.766 450.559C472.824 450.653 471.789 450.352 471.017 449.674C470.245 448.996 469.775 447.961 469.775 446.925C469.775 445.871 470.245 444.836 471.017 444.177C471.789 443.499 472.824 443.198 473.766 443.292C475.724 443.443 477.098 445.212 477.06 446.925ZM477.06 446.925C477.06 446.059 476.665 445.212 476.025 444.666C475.385 444.12 474.538 443.894 473.766 443.989C472.184 444.177 471.168 445.589 471.187 446.925C471.168 448.262 472.184 449.674 473.766 449.862C474.538 449.957 475.385 449.731 476.025 449.185C476.665 448.62 477.06 447.773 477.06 446.925Z" fill="black"/>
<path opacity="0.1" d="M500.047 452.517C500.085 454.23 498.711 455.981 496.753 456.151C495.811 456.245 494.776 455.943 494.004 455.266C493.232 454.588 492.761 453.552 492.761 452.517C492.761 451.463 493.232 450.427 494.004 449.768C494.776 449.091 495.811 448.789 496.753 448.884C498.729 449.053 500.085 450.823 500.047 452.517ZM500.047 452.517C500.047 451.651 499.652 450.804 499.012 450.258C498.372 449.712 497.525 449.486 496.753 449.58C495.171 449.768 494.155 451.18 494.173 452.517C494.155 453.854 495.171 455.266 496.753 455.454C497.525 455.548 498.372 455.322 499.012 454.776C499.671 454.23 500.047 453.383 500.047 452.517Z" fill="black"/>
<path opacity="0.1" d="M523.034 458.391C522.94 460.104 521.434 461.742 519.476 461.761C518.516 461.78 517.518 461.403 516.803 460.669C516.087 459.935 515.711 458.88 515.786 457.826C515.88 456.791 516.407 455.793 517.236 455.172C518.064 454.55 519.118 454.343 520.06 454.494C521.98 454.833 523.204 456.678 523.034 458.391ZM523.034 458.391C523.091 457.525 522.771 456.659 522.187 456.056C521.585 455.473 520.756 455.172 519.985 455.209C518.403 455.266 517.273 456.602 517.179 457.939C517.048 459.257 517.97 460.763 519.533 461.064C520.286 461.215 521.152 461.045 521.829 460.556C522.526 460.066 522.959 459.238 523.034 458.391Z" fill="black"/>
<path opacity="0.1" d="M413.239 421.209C413.277 422.922 411.902 424.673 409.944 424.842C409.003 424.936 407.968 424.635 407.196 423.957C406.424 423.28 405.953 422.244 405.953 421.209C405.953 420.173 406.424 419.119 407.196 418.46C407.968 417.782 409.003 417.481 409.944 417.575C411.902 417.745 413.277 419.495 413.239 421.209ZM413.239 421.209C413.239 420.343 412.844 419.495 412.203 418.95C411.563 418.404 410.716 418.178 409.944 418.272C408.363 418.46 407.346 419.872 407.365 421.209C407.346 422.545 408.363 423.957 409.944 424.146C410.716 424.24 411.563 424.014 412.203 423.468C412.844 422.922 413.22 422.075 413.239 421.209Z" fill="black"/>
<path opacity="0.2" d="M374.506 461.562C396.332 441.938 398.117 408.335 378.492 386.508C358.867 364.682 325.264 362.898 303.438 382.522C281.612 402.147 279.827 435.75 299.452 457.576C319.077 479.403 352.68 481.187 374.506 461.562Z" fill="black"/>
<path d="M378.818 437.136C387.151 415.121 376.06 390.519 354.045 382.186C332.031 373.853 307.429 384.944 299.096 406.959C290.763 428.973 301.854 453.575 323.868 461.908C345.883 470.241 370.485 459.15 378.818 437.136Z" fill="#263238"/>
<path d="M336.397 406.377L326.437 404.764L324.823 414.725L334.784 416.338L336.397 406.377Z" fill="#FF6348"/>
<path d="M328.057 394.802L318.096 393.188L316.483 403.149L326.443 404.762L328.057 394.802Z" fill="#FF6348"/>
<path d="M367.911 401.257L357.951 399.644L356.337 409.605L366.298 411.218L367.911 401.257Z" fill="#FF6348"/>
<path d="M321.639 434.43L311.678 432.817L310.065 442.777L320.025 444.391L321.639 434.43Z" fill="#FF6348"/>
<path d="M361.493 440.886L351.533 439.273L349.919 449.233L359.88 450.847L361.493 440.886Z" fill="#FF6348"/>
<path d="M333.215 426.09L323.254 424.476L321.641 434.437L331.601 436.051L333.215 426.09Z" fill="#FF6348"/>
<path d="M344.775 417.844L334.814 416.23L333.201 426.191L343.162 427.805L344.775 417.844Z" fill="#FF6348"/>
<path d="M356.332 409.616L346.372 408.003L344.758 417.964L354.719 419.577L356.332 409.616Z" fill="#FF6348"/>
<path d="M353.143 429.302L343.183 427.688L341.569 437.649L351.53 439.263L353.143 429.302Z" fill="#FF6348"/>
<path d="M522.729 477.986C541.333 455.282 538.008 421.796 515.304 403.193C492.601 384.589 459.114 387.914 440.511 410.617C421.907 433.321 425.232 466.808 447.936 485.411C470.639 504.014 504.126 500.69 522.729 477.986Z" fill="#FF6348"/>
<path opacity="0.2" d="M522.729 477.986C541.333 455.282 538.008 421.796 515.304 403.193C492.601 384.589 459.114 387.914 440.511 410.617C421.907 433.321 425.232 466.808 447.936 485.411C470.639 504.014 504.126 500.69 522.729 477.986Z" fill="black"/>
<path opacity="0.2" d="M533.332 456.621C533.088 457.676 532.805 458.673 532.504 459.69L428.902 437.588C429.147 435.743 429.486 433.898 429.919 432.015C436.697 403.456 465.35 385.815 493.929 392.593C522.451 399.389 540.11 428.043 533.332 456.621Z" fill="black"/>
<path d="M498.042 483.66C519.763 474.586 530.014 449.622 520.94 427.901C511.865 406.181 486.901 395.929 465.18 405.004C443.46 414.079 433.209 439.043 442.283 460.763C451.358 482.484 476.322 492.735 498.042 483.66Z" fill="#263238"/>
<path d="M492.342 421.033L482.524 418.7L470.907 467.586L480.724 469.919L492.342 421.033Z" fill="#FF6348"/>
<path d="M536.401 455.623L427.585 429.756C434.72 399.709 464.88 381.146 494.927 388.281C524.973 395.435 543.555 425.576 536.401 455.623Z" fill="#FF6348"/>
<path opacity="0.2" d="M536.401 455.623L427.585 429.756C434.72 399.709 464.88 381.146 494.927 388.281C524.973 395.435 543.555 425.576 536.401 455.623Z" fill="black"/>
<path opacity="0.1" d="M389.141 475.918C389.424 471.663 390.986 467.352 394.055 463.944C395.58 462.231 397.594 460.876 399.835 460.066C402.075 459.238 404.503 459.087 406.8 459.294C409.135 459.577 411.526 460.386 413.484 461.874C415.404 463.38 416.854 465.338 417.72 467.465C419.489 471.682 419.696 476.182 418.83 480.361C418.115 476.182 417.042 472.134 415.084 468.802C413.145 465.451 410.057 463.361 406.405 463.041C402.658 462.57 399.025 463.587 396.088 466.053C393.132 468.519 390.892 472.059 389.141 475.918Z" fill="black"/>
<path d="M283.036 367.516C283.469 361.83 284.109 356.182 284.655 350.516C285.257 344.868 285.879 339.201 286.575 333.572C287.234 327.924 287.968 322.295 288.684 316.647C289.399 310.999 290.209 305.389 290.962 299.741L291.169 298.235L292.694 298.329C304.95 299.101 317.187 300.099 329.405 301.341C335.524 301.962 341.623 302.678 347.704 303.469C353.785 304.335 359.885 305.144 365.928 306.255L329.179 303.977L292.468 301.605L294.2 300.193C293.371 305.822 292.6 311.451 291.715 317.061C290.849 322.671 289.983 328.301 289.06 333.911C288.157 339.521 287.196 345.131 286.199 350.723C285.144 356.314 284.184 361.924 283.036 367.516Z" fill="white"/>
<path d="M291.884 410.459C293.127 403.625 296.214 397.13 300.394 391.463C301.429 390.032 302.615 388.714 303.745 387.359C304.968 386.097 306.249 384.855 307.51 383.612C308.884 382.502 310.278 381.391 311.69 380.318C313.196 379.358 314.664 378.379 316.189 377.456C317.789 376.684 319.389 375.894 321.009 375.159L326.054 373.408L331.288 372.335C333.039 372.072 334.827 372.015 336.578 371.884C343.657 371.695 350.641 373.22 357.042 375.799C350.227 374.519 343.431 373.823 336.747 374.463C330.064 375.084 323.588 377.08 317.789 380.355C311.934 383.537 306.776 387.942 302.389 393.063C298.04 398.203 294.426 404.02 291.884 410.459Z" fill="white"/>
<path d="M438.485 424.823C440.65 418.234 444.622 412.21 449.536 407.183C450.76 405.922 452.115 404.773 453.414 403.587C454.808 402.495 456.238 401.46 457.669 400.406C459.194 399.483 460.719 398.579 462.263 397.713C463.882 396.979 465.482 396.207 467.12 395.511C468.814 394.965 470.509 394.4 472.222 393.892L477.456 392.856L482.784 392.517C484.553 392.498 486.323 392.706 488.093 392.819C495.134 393.609 501.836 396.076 507.823 399.521C501.252 397.318 494.625 395.68 487.904 395.379C481.202 395.078 474.5 396.151 468.306 398.598C462.075 400.952 456.333 404.604 451.306 409.047C446.279 413.528 441.912 418.799 438.485 424.823Z" fill="white"/>
<path d="M274.432 595.146C260.821 595.146 231.018 592.077 211.834 567.414C187.304 535.861 196.171 475.335 196.547 472.755L207.203 474.374C207.109 474.958 198.656 532.906 220.344 560.787C241.542 588.048 280.005 584.132 280.4 584.095L281.605 594.807C281.172 594.863 278.536 595.146 274.432 595.146Z" fill="#FF6348"/>
<path opacity="0.4" d="M274.432 595.146C260.821 595.146 231.018 592.077 211.834 567.414C187.304 535.861 196.171 475.335 196.547 472.755L207.203 474.374C207.109 474.958 198.656 532.906 220.344 560.787C241.542 588.048 280.005 584.132 280.4 584.095L281.605 594.807C281.172 594.863 278.536 595.146 274.432 595.146Z" fill="white"/>
<path d="M210.328 481.717C208.389 481.717 206.394 481.547 204.379 481.227C186.4 478.309 178.455 467.559 174.935 459.05C171.414 450.521 170.605 440.205 172.525 428.382L195.324 432.072C194.138 439.395 194.476 445.834 196.303 450.239C197.602 453.364 200.106 457.129 208.088 458.428C211.74 459.012 215.675 458.711 219.817 452.479C222.998 447.679 224.919 441.127 225.596 436.985L248.395 440.675C247.868 443.932 245.628 455.341 239.076 465.244C231.903 476.012 221.869 481.717 210.328 481.717Z" fill="#FF6348"/>
<path d="M296.948 625.983C296.911 625.494 277.633 622.406 277.633 622.406L268.276 559.507L291.621 550.282L296.948 625.983Z" fill="#FF6348"/>
<path opacity="0.2" d="M296.948 625.983C296.911 625.494 277.633 622.406 277.633 622.406L268.276 559.507L291.621 550.282L296.948 625.983Z" fill="black"/>
<path d="M487.453 626.096C487.509 625.607 506.844 622.952 506.844 622.952L517.594 560.279L494.456 550.546L487.453 626.096Z" fill="#FF6348"/>
<path opacity="0.2" d="M487.453 626.096C487.509 625.607 506.844 622.952 506.844 622.952L517.594 560.279L494.456 550.546L487.453 626.096Z" fill="black"/>
<path d="M288.928 536.219C288.928 536.219 444.792 529.554 497.431 538.328C497.431 538.328 481.974 689.146 481.127 692.064C481.127 692.064 326.092 691.65 301.862 692.064C301.862 692.064 288.721 591.776 288.928 536.219Z" fill="#FF6348"/>
<path opacity="0.2" d="M336.258 577.543C336.258 577.543 421.334 574.192 450.082 578.616C450.082 578.616 441.648 654.656 441.177 656.143C441.177 656.143 356.534 655.936 343.318 656.143C343.318 656.124 337.519 604.088 336.258 577.543Z" fill="black"/>
<path opacity="0.2" d="M347.893 656.105C345.954 656.105 344.391 656.124 343.318 656.143C343.318 656.143 337.519 604.088 336.258 577.543C336.258 577.543 338.197 577.468 341.567 577.355L347.893 656.105Z" fill="black"/>
<path d="M372.988 596.313C368.225 594.807 363.142 597.461 361.636 602.224C360.13 607.006 362.784 612.071 367.547 613.577C372.31 615.083 377.394 612.428 378.881 607.665C380.406 602.902 377.751 597.819 372.988 596.313ZM377.845 607.326C376.528 611.525 372.066 613.84 367.886 612.522C363.707 611.205 361.372 606.743 362.69 602.544C364.008 598.365 368.47 596.03 372.668 597.348C376.848 598.685 379.163 603.147 377.845 607.326ZM372.988 596.313C368.225 594.807 363.142 597.461 361.636 602.224C360.13 607.006 362.784 612.071 367.547 613.577C372.31 615.083 377.394 612.428 378.881 607.665C380.406 602.902 377.751 597.819 372.988 596.313ZM377.845 607.326C376.528 611.525 372.066 613.84 367.886 612.522C363.707 611.205 361.372 606.743 362.69 602.544C364.008 598.365 368.47 596.03 372.668 597.348C376.848 598.685 379.163 603.147 377.845 607.326ZM372.988 596.313C368.225 594.807 363.142 597.461 361.636 602.224C360.13 607.006 362.784 612.071 367.547 613.577C372.31 615.083 377.394 612.428 378.881 607.665C380.406 602.902 377.751 597.819 372.988 596.313ZM377.845 607.326C376.528 611.525 372.066 613.84 367.886 612.522C363.707 611.205 361.372 606.743 362.69 602.544C364.008 598.365 368.47 596.03 372.668 597.348C376.848 598.685 379.163 603.147 377.845 607.326ZM376 586.749C365.947 583.586 355.235 589.178 352.072 599.212C348.909 609.265 354.482 619.978 364.535 623.14C374.57 626.303 385.301 620.731 388.463 610.677C391.626 600.624 386.054 589.912 376 586.749ZM380.236 608.079C378.504 613.577 372.631 616.645 367.114 614.913C361.617 613.181 358.548 607.307 360.28 601.791C362.012 596.294 367.905 593.225 373.402 594.957C378.9 596.708 381.968 602.582 380.236 608.079ZM378.9 607.665C380.406 602.902 377.751 597.819 372.988 596.313C368.225 594.807 363.142 597.461 361.636 602.224C360.13 607.006 362.784 612.071 367.547 613.577C372.31 615.083 377.394 612.428 378.9 607.665ZM377.845 607.326C376.528 611.525 372.066 613.84 367.886 612.522C363.707 611.205 361.372 606.743 362.69 602.544C364.008 598.365 368.47 596.03 372.668 597.348C376.848 598.685 379.163 603.147 377.845 607.326ZM372.988 596.313C368.225 594.807 363.142 597.461 361.636 602.224C360.13 607.006 362.784 612.071 367.547 613.577C372.31 615.083 377.394 612.428 378.881 607.665C380.406 602.902 377.751 597.819 372.988 596.313ZM377.845 607.326C376.528 611.525 372.066 613.84 367.886 612.522C363.707 611.205 361.372 606.743 362.69 602.544C364.008 598.365 368.47 596.03 372.668 597.348C376.848 598.685 379.163 603.147 377.845 607.326ZM372.988 596.313C368.225 594.807 363.142 597.461 361.636 602.224C360.13 607.006 362.784 612.071 367.547 613.577C372.31 615.083 377.394 612.428 378.881 607.665C380.406 602.902 377.751 597.819 372.988 596.313ZM377.845 607.326C376.528 611.525 372.066 613.84 367.886 612.522C363.707 611.205 361.372 606.743 362.69 602.544C364.008 598.365 368.47 596.03 372.668 597.348C376.848 598.685 379.163 603.147 377.845 607.326Z" fill="#FF6348"/>
<path d="M368.263 623.479L361.278 621.277L360.111 626.341L366.324 628.318L368.263 623.479Z" fill="#FF6348"/>
<path d="M355.706 616.928L352.317 610.433L347.893 613.181L350.905 618.961L355.706 616.928Z" fill="#FF6348"/>
<path d="M351.451 603.41L353.654 596.407L348.57 595.24L346.612 601.452L351.451 603.41Z" fill="#FF6348"/>
<path d="M358.002 590.834L364.497 587.446L361.749 583.021L355.95 586.053L358.002 590.834Z" fill="#FF6348"/>
<path d="M371.52 586.58L378.504 588.782L379.69 583.718L373.459 581.741L371.52 586.58Z" fill="#FF6348"/>
<path d="M384.096 593.131L387.484 599.645L391.89 596.878L388.878 591.098L384.096 593.131Z" fill="#FF6348"/>
<path d="M388.351 606.648L386.148 613.652L391.212 614.819L393.17 608.606L388.351 606.648Z" fill="#FF6348"/>
<path d="M381.799 619.225L375.285 622.613L378.053 627.038L383.832 624.025L381.799 619.225Z" fill="#FF6348"/>
<path d="M403.75 622.933C400.926 621.088 397.161 621.898 395.316 624.722C393.471 627.546 394.281 631.311 397.105 633.156C399.929 635.001 403.694 634.192 405.539 631.368C407.365 628.544 406.574 624.759 403.75 622.933ZM404.918 630.953C403.299 633.438 399.985 634.135 397.519 632.516C395.034 630.897 394.337 627.583 395.956 625.117C397.575 622.632 400.889 621.936 403.355 623.555C405.821 625.174 406.518 628.468 404.918 630.953ZM403.75 622.933C400.926 621.088 397.161 621.898 395.316 624.722C393.471 627.546 394.281 631.311 397.105 633.156C399.929 635.001 403.694 634.192 405.539 631.368C407.365 628.544 406.574 624.759 403.75 622.933ZM404.918 630.953C403.299 633.438 399.985 634.135 397.519 632.516C395.034 630.897 394.337 627.583 395.956 625.117C397.575 622.632 400.889 621.936 403.355 623.555C405.821 625.174 406.518 628.468 404.918 630.953ZM403.75 622.933C400.926 621.088 397.161 621.898 395.316 624.722C393.471 627.546 394.281 631.311 397.105 633.156C399.929 635.001 403.694 634.192 405.539 631.368C407.365 628.544 406.574 624.759 403.75 622.933ZM404.918 630.953C403.299 633.438 399.985 634.135 397.519 632.516C395.034 630.897 394.337 627.583 395.956 625.117C397.575 622.632 400.889 621.936 403.355 623.555C405.821 625.174 406.518 628.468 404.918 630.953ZM407.44 617.267C401.491 613.388 393.547 615.083 389.668 621.013C385.809 626.962 387.484 634.907 393.415 638.785C399.345 642.645 407.309 640.969 411.187 635.02C415.046 629.108 413.371 621.145 407.44 617.267ZM406.33 631.876C404.202 635.133 399.835 636.055 396.596 633.947C393.339 631.838 392.417 627.452 394.544 624.214C396.672 620.957 401.039 620.034 404.278 622.161C407.516 624.251 408.438 628.619 406.33 631.876ZM405.539 631.368C407.384 628.544 406.574 624.778 403.769 622.933C400.945 621.088 397.18 621.898 395.335 624.722C393.49 627.546 394.3 631.311 397.124 633.156C399.929 634.982 403.694 634.173 405.539 631.368ZM404.918 630.953C403.299 633.438 399.985 634.135 397.519 632.516C395.034 630.897 394.337 627.583 395.956 625.117C397.575 622.632 400.889 621.936 403.355 623.555C405.821 625.174 406.518 628.468 404.918 630.953ZM403.75 622.933C400.926 621.088 397.161 621.898 395.316 624.722C393.471 627.546 394.281 631.311 397.105 633.156C399.929 635.001 403.694 634.192 405.539 631.368C407.365 628.544 406.574 624.759 403.75 622.933ZM404.918 630.953C403.299 633.438 399.985 634.135 397.519 632.516C395.034 630.897 394.337 627.583 395.956 625.117C397.575 622.632 400.889 621.936 403.355 623.555C405.821 625.174 406.518 628.468 404.918 630.953ZM403.75 622.933C400.926 621.088 397.161 621.898 395.316 624.722C393.471 627.546 394.281 631.311 397.105 633.156C399.929 635.001 403.694 634.192 405.539 631.368C407.365 628.544 406.574 624.759 403.75 622.933ZM404.918 630.953C403.299 633.438 399.985 634.135 397.519 632.516C395.034 630.897 394.337 627.583 395.956 625.117C397.575 622.632 400.889 621.936 403.355 623.555C405.821 625.174 406.518 628.468 404.918 630.953Z" fill="#DBDBDB"/>
<path d="M395.787 639.689L391.645 636.997L389.969 640.084L393.641 642.475L395.787 639.689Z" fill="#DBDBDB"/>
<path d="M388.802 633.175L387.786 628.336L384.435 629.334L385.338 633.627L388.802 633.175Z" fill="#DBDBDB"/>
<path d="M388.501 623.63L391.193 619.488L388.106 617.812L385.715 621.502L388.501 623.63Z" fill="#DBDBDB"/>
<path d="M395.015 616.664L399.853 615.648L398.856 612.278L394.563 613.2L395.015 616.664Z" fill="#DBDBDB"/>
<path d="M404.56 616.344L408.702 619.055L410.377 615.968L406.687 613.577L404.56 616.344Z" fill="#DBDBDB"/>
<path d="M411.526 622.877L412.542 627.696L415.912 626.717L415.009 622.425L411.526 622.877Z" fill="#DBDBDB"/>
<path d="M411.846 632.422L409.154 636.545L412.222 638.22L414.613 634.549L411.846 632.422Z" fill="#DBDBDB"/>
<path d="M405.313 639.387L400.493 640.404L401.472 643.774L405.765 642.851L405.313 639.387Z" fill="#DBDBDB"/>
<path d="M493.665 674.518L499.652 675.628L516.784 559.601L509.969 558.359L493.665 674.518Z" fill="#FF6348"/>
<path d="M441.196 656.124L450.101 578.597L509.969 558.34C509.969 558.34 493.665 675.76 493.665 674.499L441.196 656.124Z" fill="#FF6348"/>
<path opacity="0.4" d="M441.196 656.124L450.101 578.597L509.969 558.34C509.969 558.34 493.665 675.76 493.665 674.499L441.196 656.124Z" fill="white"/>
<path d="M296.082 581.741C295.103 575.322 294.576 568.845 294.181 562.369C293.993 559.131 293.917 555.874 293.842 552.636C293.786 549.398 293.729 546.141 293.823 542.903L293.842 542.055L294.67 542.018C306.569 541.378 318.448 540.606 330.346 540.079C342.245 539.495 354.143 538.949 366.041 538.591C354.181 539.664 342.301 540.587 330.422 541.434C318.542 542.357 306.663 543.034 294.783 543.844L295.631 542.94L295.574 552.636L295.687 562.331C295.706 565.569 295.762 568.808 295.857 572.046L296.082 581.741Z" fill="white"/>
<path d="M458.441 579.746C462.15 577.976 465.915 576.338 469.737 574.832C473.54 573.288 477.381 571.82 481.259 570.483C485.137 569.165 489.034 567.866 493.006 566.755C496.96 565.645 500.951 564.609 505.036 563.95L506.034 563.781L505.846 564.741C504.905 569.768 503.926 574.775 502.758 579.764C503.191 574.662 503.813 569.598 504.472 564.534L505.3 565.325C501.346 566.266 497.431 567.377 493.515 568.525C489.599 569.692 485.702 570.916 481.824 572.196L458.441 579.746Z" fill="white"/>
<path opacity="0.1" d="M321.988 536.539L322.985 555.93L323.851 575.321L325.357 614.123L326.525 652.924L326.995 672.334L327.315 691.744L326.299 672.353L325.433 652.961L323.946 614.16L322.778 575.359L322.308 555.949L321.988 536.539Z" fill="black"/>
<path opacity="0.1" d="M316.434 548.23C316.81 549.906 315.813 551.883 313.93 552.447C313.026 552.73 311.953 552.636 311.049 552.127C310.165 551.619 309.506 550.697 309.299 549.68C309.091 548.663 309.336 547.553 309.976 546.743C310.598 545.933 311.558 545.425 312.499 545.331C314.438 545.086 316.133 546.536 316.434 548.23ZM316.434 548.23C316.264 547.383 315.718 546.63 314.984 546.216C314.25 545.802 313.365 545.764 312.65 545.99C311.144 546.479 310.409 548.08 310.692 549.379C310.936 550.697 312.217 551.883 313.798 551.751C314.57 551.694 315.361 551.299 315.869 550.64C316.396 549.981 316.603 549.078 316.434 548.23Z" fill="black"/>
<path opacity="0.1" d="M317.77 571.481C318.147 573.156 317.149 575.133 315.267 575.698C314.363 575.98 313.29 575.886 312.386 575.378C311.501 574.87 310.842 573.947 310.635 572.93C310.428 571.914 310.673 570.803 311.313 569.994C311.934 569.184 312.894 568.676 313.836 568.582C315.775 568.337 317.469 569.786 317.77 571.481ZM317.77 571.481C317.601 570.634 317.055 569.881 316.321 569.466C315.587 569.052 314.702 569.015 313.986 569.24C312.48 569.73 311.746 571.33 312.028 572.629C312.273 573.947 313.553 575.133 315.135 575.001C315.907 574.926 316.697 574.55 317.206 573.891C317.714 573.232 317.921 572.309 317.77 571.481Z" fill="black"/>
<path opacity="0.1" d="M318.618 596.143C318.994 597.819 317.996 599.796 316.114 600.361C315.21 600.643 314.137 600.549 313.233 600.041C312.348 599.532 311.689 598.61 311.482 597.593C311.275 596.577 311.52 595.466 312.16 594.656C312.781 593.847 313.742 593.338 314.683 593.244C316.622 593.018 318.316 594.468 318.618 596.143ZM318.618 596.143C318.448 595.296 317.902 594.543 317.168 594.129C316.434 593.715 315.549 593.677 314.833 593.903C313.327 594.393 312.593 595.993 312.876 597.292C313.12 598.61 314.4 599.796 315.982 599.664C316.754 599.589 317.545 599.212 318.053 598.553C318.561 597.894 318.768 596.991 318.618 596.143Z" fill="black"/>
<path opacity="0.1" d="M319.465 620.825C319.841 622.5 318.844 624.477 316.961 625.042C316.057 625.324 314.984 625.23 314.08 624.722C313.196 624.214 312.537 623.291 312.33 622.274C312.122 621.258 312.367 620.147 312.988 619.337C313.61 618.528 314.57 618.02 315.511 617.925C317.469 617.681 319.164 619.149 319.465 620.825ZM319.465 620.825C319.295 619.978 318.749 619.225 318.015 618.81C317.281 618.396 316.396 618.358 315.681 618.584C314.175 619.074 313.44 620.674 313.723 621.973C313.967 623.291 315.248 624.477 316.829 624.345C317.601 624.289 318.392 623.893 318.9 623.235C319.408 622.576 319.615 621.672 319.465 620.825Z" fill="black"/>
<path opacity="0.1" d="M320.312 645.506C320.689 647.182 319.691 649.158 317.808 649.723C316.904 650.006 315.831 649.911 314.928 649.403C314.043 648.895 313.384 647.972 313.177 646.956C312.97 645.939 313.215 644.828 313.855 644.019C314.476 643.209 315.436 642.701 316.377 642.607C318.316 642.362 320.011 643.831 320.312 645.506ZM320.312 645.506C320.143 644.659 319.597 643.906 318.862 643.492C318.128 643.078 317.243 643.04 316.528 643.266C315.022 643.755 314.288 645.356 314.57 646.655C314.815 647.972 316.095 649.158 317.676 649.027C318.448 648.97 319.239 648.575 319.747 647.916C320.256 647.257 320.463 646.353 320.312 645.506Z" fill="black"/>
<path opacity="0.1" d="M321.159 670.188C321.536 671.863 320.538 673.84 318.655 674.405C317.752 674.687 316.679 674.593 315.775 674.085C314.89 673.576 314.231 672.654 314.024 671.637C313.817 670.621 314.062 669.51 314.683 668.7C315.304 667.891 316.264 667.382 317.206 667.288C319.164 667.044 320.858 668.512 321.159 670.188ZM321.159 670.188C320.99 669.34 320.444 668.587 319.71 668.173C318.975 667.759 318.091 667.721 317.375 667.947C315.869 668.437 315.135 670.037 315.417 671.336C315.662 672.654 316.942 673.84 318.524 673.708C319.295 673.633 320.086 673.256 320.594 672.597C321.103 671.938 321.31 671.035 321.159 670.188Z" fill="black"/>
<path d="M328.782 707.918L240.535 734.659L243.658 744.965L331.904 718.223L328.782 707.918Z" fill="#FF6348"/>
<path opacity="0.4" d="M328.782 707.918L240.535 734.659L243.658 744.965L331.904 718.223L328.782 707.918Z" fill="white"/>
<path d="M286.547 717.21L276.284 720.474L281.134 735.725L291.397 732.461L286.547 717.21Z" fill="#FF6348"/>
<path d="M242.954 760.084L220.193 661.471L151.458 677.775L185.289 773.864L242.954 760.084Z" fill="#FF6348"/>
<path d="M258.204 755.076L242.954 760.084L220.193 661.471L242.126 666.686L258.204 755.076Z" fill="#FF6348"/>
<path opacity="0.2" d="M258.204 755.076L242.954 760.084L220.193 661.471L242.126 666.686L258.204 755.076Z" fill="black"/>
<path d="M330.384 724.765C336.841 724.765 342.075 719.531 342.075 713.074C342.075 706.617 336.841 701.383 330.384 701.383C323.927 701.383 318.693 706.617 318.693 713.074C318.693 719.531 323.927 724.765 330.384 724.765Z" fill="#FF6348"/>
<path d="M450.764 707.637L447.62 717.936L535.811 744.862L538.955 734.563L450.764 707.637Z" fill="#FF6348"/>
<path opacity="0.4" d="M450.764 707.637L447.62 717.936L535.811 744.862L538.955 734.563L450.764 707.637Z" fill="white"/>
<path d="M493.045 716.973L488.161 732.212L498.417 735.499L503.3 720.26L493.045 716.973Z" fill="#FF6348"/>
<path d="M536.514 759.989L559.501 661.433L628.199 677.869L594.161 773.902L536.514 759.989Z" fill="#FF6348"/>
<path d="M521.284 754.944L536.514 759.989L559.501 661.433L537.55 666.611L521.284 754.944Z" fill="#FF6348"/>
<path opacity="0.2" d="M521.284 754.944L536.514 759.989L559.501 661.433L537.55 666.611L521.284 754.944Z" fill="black"/>
<path d="M437.506 712.773C437.487 719.23 442.721 724.483 449.179 724.502C455.636 724.52 460.889 719.287 460.907 712.829C460.926 706.372 455.692 701.119 449.235 701.1C442.778 701.082 437.525 706.315 437.506 712.773Z" fill="#FF6348"/>
<path d="M525.802 591.154C526.084 590.891 554.418 564.609 587.759 573.589C621.854 582.796 650.018 634.154 650.282 634.662L659.751 629.541C658.528 627.263 629.159 573.589 590.546 563.178C551.274 552.598 519.683 582.061 518.347 583.323L525.802 591.154Z" fill="#FF6348"/>
<path opacity="0.4" d="M525.802 591.154C526.084 590.891 554.418 564.609 587.759 573.589C621.854 582.796 650.018 634.154 650.282 634.662L659.751 629.541C658.528 627.263 629.159 573.589 590.546 563.178C551.274 552.598 519.683 582.061 518.347 583.323L525.802 591.154Z" fill="white"/>
<path d="M637.725 686.378L658.151 675.591C656.193 671.882 653.783 665.5 653.426 659.739C652.974 652.284 655.93 649.648 659.205 647.935C666.36 644.151 670.633 645.657 673.551 647.37C677.637 649.78 681.797 654.731 685.261 661.283L705.688 650.495C700.096 639.915 693.244 632.158 685.299 627.471C677.373 622.802 664.552 618.999 648.437 627.508C635.88 634.135 629.479 646.071 630.401 661.132C631.098 672.993 636.181 683.46 637.725 686.378Z" fill="#FF6348"/>
<path d="M530.113 555.177C534.537 552.127 539.074 549.247 543.612 546.385C548.149 543.505 552.761 540.775 557.374 538.026C562.005 535.315 566.636 532.623 571.362 530.044L578.422 526.185C580.812 524.961 583.166 523.681 585.594 522.495C583.392 524.038 581.133 525.488 578.892 526.975L572.096 531.287C567.559 534.148 562.946 536.897 558.334 539.645C553.703 542.356 549.071 545.049 544.346 547.628C539.639 550.226 534.933 552.786 530.113 555.177Z" fill="#263238"/>
<path d="M518.384 599.231C524.729 602.846 530.734 606.912 536.646 611.11C542.538 615.346 548.356 619.695 553.816 624.515C547.471 620.9 541.465 616.834 535.554 612.635C529.661 608.399 523.863 604.051 518.384 599.231Z" fill="#263238"/>
<path d="M528.795 593.809C533.69 595.296 538.51 596.972 543.31 598.685C548.13 600.379 552.874 602.205 557.637 604.032C562.382 605.895 567.126 607.778 571.814 609.774L578.836 612.786C581.151 613.859 583.505 614.857 585.802 615.986C583.354 615.252 580.944 614.424 578.516 613.652L571.305 611.129C566.486 609.435 561.741 607.609 556.978 605.782C552.234 603.919 547.49 602.036 542.802 600.04C538.077 598.045 533.389 596.012 528.795 593.809Z" fill="#263238"/>
<path d="M542.689 559.3C547.377 558.076 552.102 557.06 556.828 556.081C561.553 555.083 566.297 554.217 571.06 553.351C575.823 552.541 580.587 551.732 585.368 551.054L592.541 550.056C594.951 549.793 597.342 549.473 599.752 549.266C597.417 549.887 595.045 550.395 592.692 550.979L585.613 552.485C580.888 553.483 576.144 554.349 571.38 555.215C566.617 556.024 561.854 556.834 557.072 557.512C552.291 558.189 547.509 558.848 542.689 559.3Z" fill="#263238"/>
<path d="M599.093 368.627C594.029 360.908 591.186 352.248 591.186 343.079C591.186 310.698 626.73 284.454 670.558 284.454C714.386 284.454 749.892 310.698 749.892 343.079C749.892 375.461 714.367 401.705 670.558 401.705C649.303 401.705 630.044 395.548 615.811 385.476L588.475 392.423L599.093 368.627Z" fill="white"/>
<path d="M599.093 368.627C594.311 361.51 591.318 353.095 590.998 344.472C590.753 335.85 592.88 327.133 597.304 319.678C601.634 312.166 607.791 305.841 614.757 300.739C621.722 295.618 629.573 291.74 637.781 289.029C645.971 286.299 654.518 284.642 663.14 283.964C671.763 283.324 680.461 283.87 688.989 285.282C691.097 285.715 693.262 285.998 695.352 286.563L701.621 288.257L707.74 290.422C709.773 291.156 711.712 292.154 713.708 293.001C721.521 296.71 728.863 301.586 735.019 307.742C741.176 313.861 746.127 321.354 748.744 329.731C751.361 338.071 751.549 347.24 749.007 355.636C746.541 364.052 741.684 371.62 735.622 377.833C729.541 384.064 722.274 389.016 714.499 392.819C706.723 396.659 698.346 399.182 689.855 400.707C681.345 402.175 672.666 402.797 664.044 402.194C655.421 401.648 646.874 400.067 638.666 397.375C630.477 394.682 622.588 390.917 615.585 385.872L615.943 385.928L588.55 392.668L588.136 392.762L588.305 392.386L599.093 368.627ZM599.093 368.627L588.663 392.517L588.418 392.235L615.698 385.062L615.886 385.006L616.056 385.119C630.138 394.833 647.119 399.897 664.1 400.801C672.61 401.328 681.176 400.632 689.554 399.125C697.913 397.563 706.14 395.097 713.764 391.294C721.389 387.547 728.468 382.671 734.379 376.59C740.272 370.528 744.922 363.205 747.257 355.109C749.685 347.033 749.44 338.279 746.955 330.259C744.47 322.22 739.707 314.972 733.758 308.985C727.79 302.979 720.636 298.197 712.993 294.526C711.035 293.679 709.152 292.7 707.156 291.985L701.151 289.838L694.995 288.163C692.942 287.617 690.815 287.316 688.744 286.883C680.366 285.452 671.8 284.943 663.291 285.489C654.8 286.092 646.366 287.636 638.252 290.271C630.138 292.888 622.362 296.635 615.453 301.624C608.544 306.575 602.444 312.769 598.058 320.092C593.577 327.359 591.355 335.925 591.449 344.472C591.581 353.02 594.424 361.435 599.093 368.627Z" fill="#263238"/>
<path d="M629.723 352.681V357.048H611.97V331.463H629.403V335.831H616.94V341.987H627.709V346.016H616.94V352.681H629.723Z" fill="#263238"/>
<path d="M633.602 357.03V331.463H644.916C646.084 331.463 647.176 331.708 648.173 332.198C649.171 332.687 650.037 333.346 650.753 334.137C651.468 334.946 652.033 335.85 652.447 336.867C652.861 337.883 653.068 338.919 653.068 339.954C653.068 341.611 652.654 343.117 651.826 344.472C650.997 345.828 649.868 346.807 648.456 347.409L654.292 357.03H648.7L643.486 348.464H638.591V357.03H633.602ZM638.591 344.096H644.822C645.274 344.096 645.707 343.983 646.102 343.776C646.498 343.569 646.837 343.268 647.138 342.891C647.42 342.514 647.646 342.081 647.816 341.573C647.985 341.065 648.06 340.519 648.06 339.954C648.06 339.352 647.966 338.806 647.778 338.297C647.59 337.789 647.326 337.356 647.006 336.98C646.686 336.603 646.309 336.321 645.895 336.113C645.481 335.906 645.048 335.812 644.615 335.812H638.591V344.096Z" fill="#263238"/>
<path d="M657.568 357.03V331.463H668.882C670.05 331.463 671.142 331.708 672.139 332.198C673.137 332.687 674.003 333.346 674.719 334.137C675.434 334.946 675.999 335.85 676.413 336.867C676.827 337.883 677.034 338.919 677.034 339.954C677.034 341.611 676.62 343.117 675.792 344.472C674.963 345.828 673.834 346.807 672.422 347.409L678.258 357.03H672.666L667.452 348.464H662.557V357.03H657.568ZM662.538 344.096H668.769C669.221 344.096 669.654 343.983 670.05 343.776C670.445 343.569 670.784 343.268 671.085 342.891C671.367 342.514 671.593 342.081 671.763 341.573C671.932 341.065 672.008 340.519 672.008 339.954C672.008 339.352 671.913 338.806 671.725 338.297C671.537 337.789 671.273 337.356 670.953 336.98C670.633 336.603 670.257 336.321 669.843 336.113C669.428 335.906 668.995 335.812 668.562 335.812H662.538V344.096Z" fill="#263238"/>
<path d="M692.453 357.218C690.57 357.218 688.876 356.86 687.351 356.126C685.826 355.392 684.508 354.413 683.416 353.208C682.324 352.003 681.477 350.61 680.875 349.047C680.272 347.485 679.971 345.884 679.971 344.247C679.971 342.533 680.291 340.914 680.931 339.352C681.571 337.789 682.437 336.415 683.567 335.21C684.678 334.005 686.014 333.045 687.558 332.348C689.102 331.633 690.759 331.275 692.566 331.275C694.411 331.275 696.105 331.652 697.63 332.405C699.155 333.158 700.454 334.156 701.546 335.379C702.619 336.603 703.466 337.996 704.069 339.559C704.671 341.121 704.972 342.703 704.972 344.322C704.972 346.035 704.652 347.654 704.031 349.198C703.41 350.742 702.544 352.116 701.433 353.302C700.322 354.488 699.005 355.448 697.461 356.145C695.917 356.86 694.241 357.218 692.453 357.218ZM685.017 344.247C685.017 345.357 685.186 346.412 685.525 347.447C685.864 348.482 686.353 349.386 686.993 350.177C687.633 350.968 688.405 351.608 689.328 352.078C690.25 352.568 691.305 352.794 692.472 352.794C693.677 352.794 694.731 352.549 695.653 352.059C696.576 351.57 697.367 350.911 697.988 350.102C698.628 349.292 699.099 348.369 699.438 347.353C699.758 346.336 699.927 345.301 699.927 344.228C699.927 343.117 699.758 342.063 699.4 341.027C699.042 339.992 698.553 339.088 697.931 338.297C697.291 337.507 696.519 336.867 695.597 336.415C694.675 335.944 693.639 335.718 692.472 335.718C691.267 335.718 690.194 335.963 689.271 336.452C688.33 336.942 687.558 337.601 686.937 338.392C686.316 339.201 685.845 340.105 685.506 341.121C685.186 342.157 685.017 343.192 685.017 344.247Z" fill="#263238"/>
<path d="M708.757 357.03V331.463H720.071C721.238 331.463 722.33 331.708 723.328 332.198C724.326 332.687 725.192 333.346 725.907 334.137C726.623 334.946 727.188 335.85 727.602 336.867C728.016 337.883 728.223 338.919 728.223 339.954C728.223 341.611 727.809 343.117 726.981 344.472C726.152 345.828 725.023 346.807 723.611 347.409L729.447 357.03H723.855L718.64 348.464H713.746V357.03H708.757ZM713.746 344.096H719.977C720.429 344.096 720.862 343.983 721.257 343.776C721.653 343.569 721.992 343.268 722.293 342.891C722.575 342.514 722.801 342.081 722.97 341.573C723.14 341.065 723.215 340.519 723.215 339.954C723.215 339.352 723.121 338.806 722.933 338.297C722.745 337.789 722.481 337.356 722.161 336.98C721.841 336.603 721.464 336.321 721.05 336.113C720.636 335.906 720.203 335.812 719.77 335.812H713.746V344.096Z" fill="#263238"/>
</g>
<defs>
<clipPath id="clip0_9_725">
<rect width="778" height="803.547" fill="white" transform="translate(0 0.307373)"/>
</clipPath>
</defs>
</svg>
