<svg width="200" height="200" viewBox="0 0 200 200" fill="none" xmlns="http://www.w3.org/2000/svg">
<path d="M126.87 144.778C107.625 133.573 85.7368 126.758 62.4064 124.843C62.2261 124.831 62.1017 125.017 62.1763 125.179L66.2679 133.573C66.8026 134.661 67.8037 135.526 69.0038 135.694C88.5971 138.417 107.264 145.182 123.493 154.988C123.605 155.057 123.754 155.013 123.817 154.895L127.622 147.359C128.088 146.432 127.759 145.294 126.863 144.778H126.87Z" fill="#2B8AAF"/>
<path d="M127.037 144.884C125.762 144.107 124.954 143.684 124.954 143.684C124.954 143.684 126.247 144.654 126.328 145.369C126.434 146.271 125.234 146.6 125.234 146.6L120.029 147.925C108.252 150.648 95.8596 152.128 83.3549 152.128C81.3278 152.128 79.2448 152.091 77.2052 152.016C76.4404 151.985 76.1357 152.713 76.4777 153.397L80.1712 161.07C80.619 161.965 81.4273 162.519 82.4284 162.525C82.7393 162.525 83.044 162.525 83.3549 162.525C96.2637 162.525 108.862 161.088 120.962 158.371C121.764 158.191 122.442 157.656 122.809 156.922L126.695 149.224L127.199 148.223L127.79 147.048C127.79 147.048 128.418 145.73 127.031 144.884H127.037Z" fill="#0F3A50"/>
<path d="M106.095 190.158L87.0735 152.085C82.8576 152.165 79.3817 152.035 77.3856 151.929C76.5648 151.886 76.0052 152.744 76.3721 153.484L99.0433 198.652C99.6216 199.802 101.257 199.802 101.835 198.652L106.095 190.164V190.158Z" fill="#0F3A50"/>
<path d="M111.268 175.894C103.875 177.007 96.2576 177.697 88.6279 177.915L99.3977 199.361C99.8268 200.213 101.046 200.213 101.475 199.361L112.443 177.504C112.854 176.69 112.176 175.757 111.268 175.894Z" fill="#0F3A50"/>
<path d="M53.2593 107.47L61.9024 124.694L68.6553 125.322C70.0917 125.427 71.8079 125.546 73.8288 125.664C76.9689 125.881 80.1091 125.993 83.3052 125.993C99.5842 125.993 115.472 123.009 129.941 117.723C130.774 117.419 131.452 116.803 131.85 116.013L144.05 91.626C147.389 84.954 149.926 77.8964 151.437 70.5901C152.028 67.7297 152.444 64.8943 152.444 62.5998C152.444 24.6382 111.579 -4.56215 72.1126 18.8926C65.9007 22.5862 61.0008 28.052 57.0212 33.9467C45.8784 50.4496 46.4504 70.559 53.6199 85.2897L53.508 85.0783L53.9246 85.9177C54.0117 86.0856 54.0925 86.2598 54.1795 86.4277L65.6644 109.217C59.9189 108.458 57.158 108.091 55.1185 107.793C53.9059 107.613 52.8551 106.841 52.3265 105.735L51.1886 103.366L44.4855 90.0092L44.4233 89.8849C40.4126 81.6397 38 72.3871 38 62.5998C38 17.5806 86.5884 -16.9983 132.316 8.87522C140.736 13.6383 148.931 21.5416 154.036 30.676C165.061 50.4061 164.874 70.7331 157.817 87.1863L157.686 87.4785L146.009 110.628L139.125 124.339C138.746 125.098 138.105 125.695 137.322 126.006C120.62 132.709 102.376 136.396 83.3052 136.396C78.5235 136.396 73.7977 136.166 69.1279 135.712C67.9402 135.594 66.8956 134.86 66.367 133.791L61.9024 124.706L53.2593 107.47Z" fill="#0F3A50"/>
</svg>
