<svg width="936" height="201" viewBox="0 0 936 201" fill="none" xmlns="http://www.w3.org/2000/svg">
<path d="M172.348 76.1913C170.65 74.4938 169.798 72.4169 169.798 69.9545C169.798 67.4922 170.65 65.4215 172.348 63.724C174.045 62.0202 176.122 61.1746 178.585 61.1746C181.047 61.1746 182.95 62.0264 184.604 63.724C186.258 65.4215 187.085 67.5046 187.085 69.9545C187.085 72.4045 186.258 74.4876 184.604 76.1913C182.95 77.8889 180.941 78.7407 178.585 78.7407C176.228 78.7407 174.052 77.8889 172.348 76.1913ZM184.815 91.3511V168.99H171.925V91.3511H184.815Z" fill="#0F3A50"/>
<path d="M262.094 98.5019C267.951 104.216 270.88 112.455 270.88 123.225V168.984H258.127V125.066C258.127 117.324 256.187 111.392 252.319 107.288C248.445 103.178 243.16 101.126 236.45 101.126C229.741 101.126 224.244 103.253 220.227 107.5C216.21 111.753 214.208 117.94 214.208 126.061V168.99H201.318V91.3511H214.208V102.401C216.757 98.4335 220.227 95.368 224.623 93.1916C229.013 91.0215 233.857 89.9333 239.143 89.9333C248.588 89.9333 256.236 92.7937 262.094 98.5082V98.5019Z" fill="#0F3A50"/>
<path d="M346.635 98.5019C352.493 104.216 355.421 112.455 355.421 123.225V168.984H342.668V125.066C342.668 117.324 340.728 111.392 336.86 107.288C332.986 103.178 327.701 101.126 320.992 101.126C314.282 101.126 308.786 103.253 304.769 107.5C300.752 111.753 298.75 117.94 298.75 126.061V168.99H285.859V91.3511H298.75V102.401C301.299 98.4335 304.769 95.368 309.165 93.1916C313.555 91.0215 318.399 89.9333 323.684 89.9333C333.129 89.9333 340.778 92.7937 346.635 98.5082V98.5019Z" fill="#0F3A50"/>
<path d="M389.552 165.303C383.651 161.995 379.019 157.301 375.667 151.207C372.316 145.113 370.637 138.055 370.637 130.028C370.637 122 372.359 115.079 375.81 108.986C379.255 102.892 383.956 98.2159 389.907 94.9638C395.858 91.7056 402.517 90.0764 409.886 90.0764C417.254 90.0764 423.914 91.7056 429.865 94.9638C435.815 98.2221 440.51 102.873 443.961 108.917C447.406 114.961 449.134 122 449.134 130.028C449.134 138.055 447.362 145.113 443.824 151.207C440.28 157.301 435.486 161.995 429.442 165.303C423.398 168.611 416.688 170.265 409.326 170.265C401.964 170.265 395.466 168.611 389.565 165.303H389.552ZM422.353 155.671C426.413 153.501 429.697 150.243 432.196 145.896C434.696 141.556 435.952 136.265 435.952 130.028C435.952 123.791 434.721 118.506 432.271 114.159C429.815 109.819 426.606 106.579 422.639 104.453C418.672 102.326 414.375 101.263 409.749 101.263C405.123 101.263 400.702 102.326 396.784 104.453C392.867 106.579 389.72 109.813 387.364 114.159C385.001 118.506 383.819 123.791 383.819 130.028C383.819 136.265 384.976 141.693 387.289 146.039C389.602 150.386 392.693 153.619 396.567 155.746C400.44 157.873 404.687 158.936 409.32 158.936C413.952 158.936 418.293 157.854 422.353 155.678V155.671Z" fill="#0F3A50"/>
<path d="M477.607 167.219C472.882 165.191 469.151 162.356 466.415 158.718C463.673 155.081 462.162 150.902 461.882 146.183H475.201C475.58 150.056 477.396 153.222 480.654 155.671C483.913 158.128 488.184 159.353 493.476 159.353C498.388 159.353 502.262 158.271 505.092 156.094C507.927 153.924 509.345 151.182 509.345 147.874C509.345 144.566 507.834 141.948 504.812 140.294C501.79 138.64 497.114 137.011 490.784 135.407C485.019 133.896 480.319 132.36 476.687 130.805C473.05 129.244 469.934 126.931 467.335 123.86C464.736 120.794 463.436 116.752 463.436 111.747C463.436 107.78 464.618 104.148 466.981 100.84C469.344 97.5321 472.695 94.9143 477.042 92.9742C481.382 91.0404 486.344 90.0703 491.915 90.0703C500.509 90.0703 507.448 92.2466 512.74 96.5869C518.031 100.933 520.861 106.884 521.24 114.439H508.35C508.064 110.379 506.435 107.12 503.462 104.664C500.49 102.208 496.498 100.983 491.493 100.983C486.866 100.983 483.179 101.978 480.443 103.962C477.701 105.945 476.333 108.544 476.333 111.753C476.333 114.302 477.16 116.404 478.814 118.058C480.468 119.712 482.545 121.03 485.051 122.025C487.55 123.014 491.026 124.127 495.466 125.352C501.037 126.863 505.57 128.349 509.065 129.817C512.559 131.284 515.557 133.479 518.063 136.402C520.562 139.33 521.862 143.154 521.961 147.88C521.961 152.133 520.78 155.958 518.417 159.359C516.054 162.76 512.727 165.428 508.431 167.362C504.134 169.295 499.197 170.265 493.625 170.265C487.675 170.265 482.339 169.246 477.614 167.219H477.607Z" fill="#0F3A50"/>
<path d="M540.081 108.986C543.289 102.991 547.754 98.3403 553.468 95.0322C559.183 91.7304 565.724 90.0764 573.093 90.0764C582.631 90.0764 590.497 92.3896 596.684 97.0221C602.871 101.648 606.957 108.072 608.94 116.292H595.055C593.731 111.572 591.156 107.842 587.332 105.099C583.508 102.363 578.764 100.989 573.093 100.989C565.724 100.989 559.774 103.52 555.241 108.569C550.708 113.624 548.438 120.775 548.438 130.034C548.438 139.293 550.708 146.612 555.241 151.71C559.774 156.809 565.724 159.359 573.093 159.359C578.757 159.359 583.483 158.04 587.258 155.392C591.032 152.749 593.631 148.968 595.049 144.056H608.934C606.857 151.99 602.697 158.345 596.467 163.108C590.23 167.878 582.439 170.265 573.093 170.265C565.724 170.265 559.183 168.611 553.468 165.303C547.754 161.995 543.289 157.325 540.081 151.275C536.866 145.231 535.262 138.149 535.262 130.022C535.262 121.895 536.866 114.98 540.081 108.98V108.986Z" fill="#0F3A50"/>
<path d="M648.68 93.6145C652.884 91.1583 658.008 89.9333 664.052 89.9333V103.253H660.65C646.199 103.253 638.974 111.094 638.974 126.769V168.99H626.084V91.3511H638.974V103.961C641.243 99.5217 644.477 96.0769 648.68 93.6207V93.6145Z" fill="#0F3A50"/>
<path d="M680.15 76.1913C678.453 74.4938 677.601 72.4169 677.601 69.9545C677.601 67.4922 678.453 65.4215 680.15 63.724C681.848 62.0202 683.924 61.1746 686.387 61.1746C688.849 61.1746 690.752 62.0264 692.406 63.724C694.06 65.4215 694.887 67.5046 694.887 69.9545C694.887 72.4045 694.06 74.4876 692.406 76.1913C690.752 77.8889 688.743 78.7407 686.387 78.7407C684.03 78.7407 681.854 77.8889 680.15 76.1913ZM692.617 91.3511V168.99H679.727V91.3511H692.617Z" fill="#0F3A50"/>
<path d="M738.071 94.535C743.121 91.5627 749.003 90.0703 755.712 90.0703C762.422 90.0703 768.864 91.7243 774.485 95.0261C780.106 98.3342 784.521 102.985 787.729 108.98C790.938 114.98 792.548 121.944 792.548 129.879C792.548 137.813 790.944 144.709 787.729 150.846C784.521 156.99 780.1 161.753 774.485 165.154C768.864 168.555 762.608 170.253 755.712 170.253C748.816 170.253 743.27 168.767 738.214 165.788C733.159 162.816 729.31 159.11 726.667 154.664V200.156H713.777V91.3388H726.667V105.647C729.217 101.207 733.016 97.501 738.071 94.5225V94.535ZM775.828 114.582C773.465 110.236 770.275 106.934 766.264 104.664C762.248 102.401 757.833 101.263 753.02 101.263C748.207 101.263 743.929 102.42 739.912 104.733C735.895 107.046 732.687 110.397 730.28 114.794C727.874 119.184 726.667 124.264 726.667 130.022C726.667 135.78 727.874 141.003 730.28 145.393C732.687 149.783 735.901 153.141 739.912 155.454C743.923 157.767 748.294 158.924 753.02 158.924C757.746 158.924 762.254 157.767 766.264 155.454C770.275 153.141 773.465 149.789 775.828 145.393C778.191 141.003 779.372 135.829 779.372 129.879C779.372 123.928 778.191 118.922 775.828 114.576V114.582Z" fill="#0F3A50"/>
<path d="M825.274 101.978V147.737C825.274 151.518 826.076 154.185 827.681 155.74C829.285 157.3 832.071 158.078 836.038 158.078H845.533V168.984H833.917C826.742 168.984 821.357 167.33 817.769 164.022C814.181 160.714 812.384 155.286 812.384 147.731V101.972H802.323V91.345H812.384V71.7952H825.274V91.345H845.533V101.972H825.274V101.978Z" fill="#0F3A50"/>
<path d="M861.116 108.986C864.324 102.991 868.739 98.3403 874.36 95.0322C879.981 91.7304 886.237 90.0764 893.133 90.0764C900.029 90.0764 905.836 91.5439 910.842 94.4664C915.847 97.3952 919.578 101.076 922.035 105.516V91.3512H935.068V168.991H922.035V154.54C919.485 159.073 915.68 162.828 910.63 165.801C905.575 168.773 899.699 170.265 892.99 170.265C886.28 170.265 879.863 168.568 874.286 165.166C868.714 161.765 864.318 156.996 861.109 150.859C857.895 144.721 856.29 137.732 856.29 129.891C856.29 122.05 857.895 114.992 861.109 108.992L861.116 108.986ZM918.496 114.725C916.133 110.385 912.95 107.052 908.933 104.739C904.916 102.426 900.501 101.269 895.688 101.269C890.875 101.269 886.479 102.401 882.512 104.67C878.545 106.934 875.38 110.242 873.017 114.588C870.654 118.935 869.473 124.034 869.473 129.891C869.473 135.748 870.654 141.015 873.017 145.405C875.38 149.795 878.545 153.153 882.512 155.466C886.479 157.779 890.869 158.936 895.688 158.936C900.507 158.936 904.922 157.779 908.933 155.466C912.944 153.153 916.133 149.801 918.496 145.405C920.859 141.015 922.041 135.892 922.041 130.034C922.041 124.177 920.859 119.078 918.496 114.731V114.725Z" fill="#0F3A50"/>
<path d="M88.8696 145.212C69.6246 134.007 47.7368 127.192 24.4064 125.277C24.2261 125.265 24.1017 125.451 24.1763 125.613L28.2679 134.007C28.8026 135.095 29.8037 135.96 31.0038 136.128C50.5971 138.851 69.2639 145.616 85.4932 155.422C85.6051 155.491 85.7543 155.447 85.8165 155.329L89.622 147.793C90.0884 146.866 89.7588 145.728 88.8634 145.212H88.8696Z" fill="#2B8AAF"/>
<path d="M89.0372 145.318C87.7625 144.541 86.9541 144.118 86.9541 144.118C86.9541 144.118 88.2475 145.088 88.3283 145.803C88.434 146.705 87.2339 147.034 87.2339 147.034L82.0294 148.359C70.2523 151.082 57.8596 152.562 45.3549 152.562C43.3278 152.562 41.2448 152.525 39.2052 152.45C38.4404 152.419 38.1357 153.147 38.4777 153.831L42.1712 161.504C42.619 162.399 43.4273 162.953 44.4284 162.959C44.7393 162.959 45.044 162.959 45.3549 162.959C58.2637 162.959 70.8616 161.522 82.9621 158.805C83.7642 158.625 84.442 158.09 84.8089 157.356L88.6952 149.658L89.1989 148.657L89.7896 147.482C89.7896 147.482 90.4176 146.164 89.031 145.318H89.0372Z" fill="#0F3A50"/>
<path d="M68.0947 190.592L49.0735 152.519C44.8576 152.599 41.3817 152.469 39.3856 152.363C38.5648 152.32 38.0052 153.178 38.3721 153.918L61.0433 199.086C61.6216 200.236 63.257 200.236 63.8353 199.086L68.0947 190.598V190.592Z" fill="#0F3A50"/>
<path d="M73.2681 176.328C65.8747 177.441 58.2576 178.131 50.6279 178.349L61.3977 199.795C61.8268 200.647 63.0455 200.647 63.4746 199.795L74.4433 177.938C74.8537 177.124 74.1759 176.191 73.2681 176.328Z" fill="#0F3A50"/>
<path d="M15.2593 107.904L23.9024 125.128L30.6553 125.756C32.0917 125.861 33.8079 125.98 35.8288 126.098C38.9689 126.315 42.1091 126.427 45.3052 126.427C61.5842 126.427 77.4715 123.443 91.9411 118.157C92.7743 117.853 93.4521 117.237 93.85 116.447L106.05 92.0598C109.389 85.3878 111.926 78.3302 113.437 71.0239C114.028 68.1635 114.444 65.3281 114.444 63.0336C114.444 25.072 73.579 -4.1283 34.1126 19.3264C27.9007 23.02 23.0008 28.4858 19.0212 34.3805C7.87835 50.8834 8.45042 70.9928 15.6199 85.7235L15.508 85.5121L15.9246 86.3515C16.0117 86.5194 16.0925 86.6936 16.1795 86.8615L27.6644 109.651C21.9189 108.892 19.158 108.525 17.1185 108.227C15.9059 108.047 14.8551 107.275 14.3265 106.169L13.1886 103.8L6.4855 90.443L6.42331 90.3187C2.41263 82.0735 0 72.8209 0 63.0336C0 18.0144 48.5884 -16.5645 94.3164 9.30906C102.736 14.0721 110.931 21.9754 116.036 31.1098C127.061 50.8399 126.874 71.1669 119.817 87.6201L119.686 87.9123L108.009 111.062L101.125 124.773C100.746 125.532 100.105 126.129 99.322 126.44C82.6201 133.143 64.3762 136.83 45.3052 136.83C40.5235 136.83 35.7977 136.6 31.1279 136.146C29.9402 136.028 28.8956 135.294 28.367 134.225L23.9024 125.14L15.2593 107.904Z" fill="#0F3A50"/>
</svg>
